<?xml version="1.0" standalone="no"?>
<!DOCTYPE svg PUBLIC "-//W3C//DTD SVG 20010904//EN"
 "http://www.w3.org/TR/2001/REC-SVG-20010904/DTD/svg10.dtd">
<svg version="1.0" xmlns="http://www.w3.org/2000/svg"
 width="762.000000pt" height="762.000000pt" viewBox="0 0 762.000000 762.000000"
 preserveAspectRatio="xMidYMid meet">
<metadata>
Created by potrace 1.11, written by Peter Selinger 2001-2013
</metadata>
<g transform="translate(0.000000,762.000000) scale(0.100000,-0.100000)"
fill="#000000" stroke="none">
<path d="M3735 7400 c-11 -4 -23 -6 -27 -3 -5 2 -14 1 -20 -4 -7 -4 -21 -9
-31 -10 -16 -3 -60 -23 -352 -163 -66 -32 -165 -79 -220 -105 -113 -54 -265
-126 -437 -209 -64 -31 -120 -56 -124 -56 -4 0 -15 -7 -24 -15 -10 -9 -26 -17
-36 -20 -11 -2 -50 -19 -89 -38 -168 -83 -304 -147 -314 -147 -6 0 -11 -4 -11
-10 0 -5 -5 -10 -11 -10 -12 0 -58 -21 -279 -128 -91 -43 -205 -98 -255 -122
-49 -23 -155 -74 -235 -112 -80 -39 -179 -86 -220 -106 -102 -48 -153 -87
-219 -168 -21 -26 -65 -112 -64 -124 1 -3 -3 -13 -9 -24 -6 -10 -12 -28 -14
-40 -4 -23 -10 -52 -44 -196 -12 -52 -24 -104 -26 -115 -2 -11 -10 -49 -19
-85 -9 -36 -18 -74 -21 -85 -12 -60 -17 -90 -13 -91 2 0 -2 -8 -10 -17 -7 -10
-11 -17 -8 -17 3 0 1 -15 -4 -32 -5 -18 -12 -46 -15 -63 -2 -16 -7 -38 -10
-47 -3 -9 -7 -25 -9 -35 -2 -10 -13 -58 -25 -108 -12 -49 -24 -103 -27 -120
-2 -16 -9 -48 -15 -70 -6 -22 -12 -47 -13 -55 -1 -8 -4 -24 -8 -35 -3 -11 -9
-31 -11 -45 -3 -14 -15 -65 -27 -115 -11 -49 -22 -97 -24 -105 -2 -8 -4 -15
-5 -15 -1 0 -3 -13 -5 -28 -2 -15 -13 -67 -25 -115 -12 -48 -24 -96 -26 -107
-2 -11 -6 -31 -9 -44 -2 -13 -16 -72 -30 -130 -13 -58 -32 -135 -40 -171 -8
-36 -18 -74 -21 -85 -2 -11 -6 -32 -9 -47 -2 -15 -6 -36 -10 -47 -3 -11 -8
-29 -10 -40 -3 -12 -7 -30 -10 -42 -2 -11 -6 -28 -9 -37 -3 -9 -7 -28 -10 -42
-2 -14 -18 -86 -35 -160 -18 -74 -34 -144 -36 -155 -2 -11 -4 -20 -5 -20 -4 0
-11 -45 -15 -95 -2 -30 -5 -57 -6 -60 -1 -3 -1 -8 -1 -11 16 -157 36 -198 171
-369 42 -52 79 -99 83 -105 5 -5 20 -23 34 -40 14 -16 35 -43 47 -58 39 -50
208 -261 225 -282 38 -46 259 -320 282 -350 21 -28 451 -563 510 -635 51 -63
62 -76 81 -98 10 -12 19 -24 19 -27 0 -2 18 -23 40 -47 22 -24 40 -48 40 -55
0 -6 4 -13 9 -15 5 -2 50 -55 101 -118 50 -63 96 -117 101 -118 5 -2 9 -9 9
-15 0 -7 18 -30 40 -52 21 -22 39 -43 40 -48 1 -22 165 -187 186 -187 8 0 14
-4 14 -8 0 -12 91 -45 167 -60 50 -11 3014 -8 3058 2 17 4 63 23 104 43 87 41
158 108 256 238 16 22 36 46 45 55 8 8 26 31 40 50 22 32 48 63 75 94 8 9 55
68 102 126 6 8 27 33 45 56 18 22 47 58 63 79 17 21 41 52 55 69 28 34 27 33
105 131 30 39 61 77 68 85 7 8 31 38 53 65 21 28 41 52 44 55 3 3 21 25 40 50
19 25 41 52 49 61 30 32 51 59 51 68 0 5 4 11 8 13 8 3 85 95 132 157 14 18
31 39 38 47 7 7 42 51 78 96 36 46 72 92 82 103 9 11 47 58 84 105 38 47 74
92 80 100 7 8 70 86 141 175 70 88 135 169 145 180 10 11 33 40 52 65 19 25
37 47 41 50 10 8 55 102 69 145 7 22 14 60 16 85 2 25 4 47 5 50 4 13 -10 109
-31 195 -28 120 -34 149 -36 160 -1 6 -3 12 -4 15 -1 3 -4 14 -6 25 -1 11 -19
90 -39 175 -20 85 -39 165 -41 177 -2 12 -8 33 -14 47 -5 13 -7 26 -4 29 2 2
0 16 -6 31 -5 15 -12 41 -15 59 -3 18 -12 61 -21 96 -9 36 -18 72 -20 80 -2 9
-7 32 -12 51 -5 19 -10 40 -11 45 -1 6 -4 21 -7 35 -3 14 -10 43 -15 65 -5 22
-11 49 -14 60 -2 11 -8 40 -14 65 -19 73 -21 84 -26 110 -2 14 -18 84 -35 155
-27 116 -86 376 -95 415 -2 8 -13 58 -26 110 -13 52 -23 97 -24 100 -1 3 -4
19 -8 35 -4 17 -9 42 -12 58 -13 72 -16 83 -21 97 -4 8 -8 24 -10 35 -2 11 -8
38 -13 60 -5 22 -12 52 -15 67 -15 72 -17 82 -21 89 -3 4 -7 24 -11 45 -22
148 -95 288 -189 363 -45 36 -185 116 -185 106 0 -3 -18 6 -40 20 -22 14 -42
25 -45 25 -6 0 -104 46 -345 163 -69 33 -127 61 -130 62 -6 1 -87 40 -290 138
-80 39 -147 71 -150 72 -3 0 -45 20 -95 44 -49 24 -144 69 -210 101 -159 76
-321 154 -480 231 -71 34 -132 63 -135 64 -3 0 -58 27 -124 58 -65 32 -123 59
-130 60 -6 1 -13 5 -16 8 -5 7 -48 28 -245 118 -49 23 -99 46 -110 51 -43 21
-203 34 -240 20z"/>
</g>
</svg>
